<svg width="202" height="44" viewBox="0 0 202 44" fill="none" xmlns="http://www.w3.org/2000/svg">
<path d="M0 0.792114V43.2078H201.133V0.792114H0ZM2.72502 40.4711V3.52882H198.408V40.4711H2.72502Z" fill="#5E5E5D"/>
<path d="M199.77 2.16052H1.36279V41.8395H199.77V2.16052Z" fill="#5E5E5D"/>
<path d="M199.77 2.16052H1.36279V41.8395H199.77V2.16052Z" fill="white"/>
<path d="M51.0781 14.9122H44.7684L28.5902 26.1979L12.4542 14.9122H7.5459V29.0877H11.2344V18.4276L26.4913 29.0877H30.7605L47.3604 17.5056V29.0877H51.0781V14.9122Z" fill="#B31416"/>
<path d="M51.0781 14.9122H44.7684L28.5902 26.1979L12.4542 14.9122H7.5459V29.0877H11.2344V18.4276L26.4913 29.0877H30.7605L47.3604 17.5056V29.0877H51.0781V14.9122Z" fill="#B31416"/>
<path d="M58.9224 25.7092V14.9155H55.1787V29.0845H86.2148V25.7092H58.9224Z" fill="#B31416"/>
<path d="M121.39 16.5152C119.541 15.3879 116.861 14.9155 113.309 14.9155H89.3452V29.0845H113.458C116.2 29.0845 118.334 28.9151 120.015 28.2179C122.652 27.1297 124.19 24.7905 124.18 21.9104C124.196 19.4832 123.246 17.6392 121.39 16.5152ZM93.0402 25.7092V18.2908H113.384C115.927 18.2875 117.767 18.5156 118.886 19.0792C119.992 19.6559 120.472 20.4411 120.492 21.9626C120.482 23.4026 119.878 24.4256 118.704 25.0479C117.663 25.5887 115.914 25.7158 113.439 25.7092H93.0402Z" fill="#B31416"/>
<path d="M136.896 18.6621C136.446 17.9128 135.213 17.1993 133.795 17.1993C131.962 17.1993 131.09 17.9682 131.09 18.9456C131.09 20.0891 132.429 20.4052 134 20.5941C136.728 20.933 139.265 21.6432 139.265 24.7774C139.265 27.7031 136.689 28.9606 133.776 28.9606C131.103 28.9606 129.052 28.1364 128.079 25.7352L130.133 24.6666C130.71 26.1099 132.222 26.7485 133.815 26.7485C135.365 26.7485 136.822 26.2044 136.822 24.7806C136.822 23.5426 135.531 23.0344 133.795 22.8454C131.122 22.5294 128.66 21.8159 128.66 18.8707C128.66 16.1665 131.31 15.0621 133.717 15.0458C135.755 15.0458 137.866 15.6257 138.853 17.6522L136.896 18.6621Z" fill="#5F5F5F"/>
<path d="M150.32 24.7545H146.625V28.6218H144.157V15.4921C146.213 15.4921 148.267 15.4725 150.32 15.4725C156.708 15.4693 156.728 24.7545 150.32 24.7545ZM146.625 22.487H150.32C153.48 22.487 153.461 17.8346 150.32 17.8346H146.625V22.487Z" fill="#5F5F5F"/>
<path d="M172.62 22.1286C172.585 25.5266 170.509 28.9215 165.918 28.9215C161.325 28.9215 159.19 25.6048 159.19 22.1514C159.19 18.6979 161.396 15.2282 165.918 15.2282C170.418 15.2249 172.659 18.6979 172.62 22.1286ZM161.623 22.1872C161.678 24.3407 162.836 26.6474 165.918 26.6474C168.997 26.6474 170.155 24.3212 170.194 22.1644C170.23 19.9555 168.997 17.4794 165.918 17.4794C162.836 17.4794 161.565 19.9718 161.623 22.1872Z" fill="#5F5F5F"/>
<path d="M180.04 17.7401H175.891V15.4921H186.651V17.7401H182.502V28.6185H180.04V17.7401Z" fill="#5F5F5F"/>
<path d="M199.77 2.15723H191.595V41.8102H199.77V2.15723Z" fill="#B31416"/>
<mask id="mask0_26_2934" style="mask-type:luminance" maskUnits="userSpaceOnUse" x="192" y="2" width="8" height="40">
<path d="M199.222 2.85767H192.143V41.1162H199.222V2.85767Z" fill="white"/>
</mask>
<g mask="url(#mask0_26_2934)">
<path d="M190.557 4.25858L190.258 3.84481L201.385 -4.7074L201.684 -4.29363L190.557 4.25858Z" fill="#1C1919"/>
<path d="M190.557 6.18408L190.258 5.76706L201.385 -2.78516L201.684 -2.36813L190.557 6.18408Z" fill="#1C1919"/>
<path d="M190.557 8.10623L190.258 7.68921L201.385 -0.859741L201.684 -0.445977L190.557 8.10623Z" fill="#1C1919"/>
<path d="M190.557 10.0285L190.258 9.61471L201.385 1.0625L201.684 1.47626L190.557 10.0285Z" fill="#1C1919"/>
<path d="M190.557 11.9507L190.258 11.537L201.385 2.98474L201.684 3.40176L190.557 11.9507Z" fill="#1C1919"/>
<path d="M190.557 13.8762L190.258 13.4592L201.385 4.90698L201.684 5.324L190.557 13.8762Z" fill="#1C1919"/>
<path d="M190.557 15.7984L190.258 15.3814L201.385 6.8324L201.684 7.24616L190.557 15.7984Z" fill="#1C1919"/>
<path d="M190.557 17.7206L190.258 17.3068L201.385 8.75464L201.684 9.1684L190.557 17.7206Z" fill="#1C1919"/>
<path d="M190.557 19.6427L190.258 19.229L201.385 10.6768L201.684 11.0938L190.557 19.6427Z" fill="#1C1919"/>
<path d="M190.557 21.5682L190.258 21.1512L201.385 12.599L201.684 13.016L190.557 21.5682Z" fill="#1C1919"/>
<path d="M190.557 23.4905L190.258 23.0735L201.385 14.5245L201.684 14.9383L190.557 23.4905Z" fill="#1C1919"/>
<path d="M190.557 25.4128L190.258 24.999L201.385 16.4468L201.684 16.8605L190.557 25.4128Z" fill="#1C1919"/>
<path d="M190.557 27.3349L190.258 26.9211L201.385 18.3689L201.684 18.7859L190.557 27.3349Z" fill="#1C1919"/>
<path d="M190.557 29.2604L190.258 28.8433L201.385 20.2911L201.684 20.7082L190.557 29.2604Z" fill="#1C1919"/>
<path d="M190.557 31.1825L190.258 30.7655L201.385 22.2166L201.684 22.6303L190.557 31.1825Z" fill="#1C1919"/>
<path d="M190.557 33.1048L190.258 32.691L201.385 24.1388L201.684 24.5526L190.557 33.1048Z" fill="#1C1919"/>
<path d="M190.557 35.027L190.258 34.6132L201.385 26.061L201.684 26.4781L190.557 35.027Z" fill="#1C1919"/>
<path d="M190.557 36.9525L190.258 36.5355L201.385 27.9833L201.684 28.4003L190.557 36.9525Z" fill="#1C1919"/>
<path d="M190.557 38.8747L190.258 38.4576L201.385 29.9087L201.684 30.3225L190.557 38.8747Z" fill="#1C1919"/>
<path d="M190.557 40.7969L190.258 40.3831L201.385 31.8309L201.684 32.2447L190.557 40.7969Z" fill="#1C1919"/>
<path d="M190.557 42.7192L190.258 42.3054L201.385 33.7532L201.684 34.1702L190.557 42.7192Z" fill="#1C1919"/>
<path d="M190.557 44.6445L190.258 44.2275L201.385 35.6753L201.684 36.0923L190.557 44.6445Z" fill="#1C1919"/>
<path d="M190.557 46.5668L190.258 46.153L201.385 37.6008L201.684 38.0146L190.557 46.5668Z" fill="#1C1919"/>
</g>
</svg>
